<svg xmlns="http://www.w3.org/2000/svg">
  <symbol id="documentation-icon" viewBox="0 0 24 24">
    <path fill="currentColor" d="M5 3h10l4 4v14H5V3Zm9 1.5V8h3.5L14 4.5ZM7 5v14h10V10h-5V5H7Zm2 8h6v1.5H9V13Zm0 3h6v1.5H9V16Z" />
  </symbol>
  <symbol id="social-icon" viewBox="0 0 24 24">
    <path fill="currentColor" d="M8 7a4 4 0 1 1 7.45 2.03l3.13 1.8A4 4 0 1 1 18 14.5l-3.72-2.14a4.02 4.02 0 0 1-4.56 0L6 14.5a4 4 0 1 1-.58-3.67l3.13-1.8A3.98 3.98 0 0 1 8 7Zm4-2.5A2.5 2.5 0 1 0 12 9.5 2.5 2.5 0 0 0 12 4.5ZM4 12a2.5 2.5 0 1 0 0 5 2.5 2.5 0 0 0 0-5Zm16 0a2.5 2.5 0 1 0 0 5 2.5 2.5 0 0 0 0-5Z" />
  </symbol>
  <symbol id="github-icon" viewBox="0 0 24 24">
    <path fill="currentColor" d="M12 .5a12 12 0 0 0-3.8 23.38c.6.11.82-.26.82-.58v-2.03c-3.34.72-4.04-1.61-4.04-1.61-.55-1.39-1.34-1.76-1.34-1.76-1.09-.75.08-.74.08-.74 1.21.09 1.85 1.24 1.85 1.24 1.07 1.84 2.81 1.31 3.5 1 .11-.78.42-1.31.76-1.61-2.66-.3-5.46-1.33-5.46-5.93 0-1.31.47-2.38 1.24-3.22-.12-.3-.54-1.52.12-3.18 0 0 1.01-.32 3.3 1.23a11.45 11.45 0 0 1 6.01 0c2.29-1.55 3.3-1.23 3.3-1.23.66 1.66.24 2.88.12 3.18.77.84 1.24 1.91 1.24 3.22 0 4.61-2.8 5.63-5.48 5.93.43.37.81 1.1.81 2.22v3.29c0 .32.22.69.83.57A12 12 0 0 0 12 .5Z" />
  </symbol>
  <symbol id="x-icon" viewBox="0 0 24 24">
    <path fill="currentColor" d="M13.67 10.48 21.3 2h-1.81l-6.62 7.36L7.58 2H1.48l8 11.14L1.48 22h1.81l7-7.78L15.9 22H22l-8.33-11.52Zm-2.48 2.76-.81-1.11L3.93 3.32h2.78l5.2 7.1.81 1.11 6.77 9.25H16.7l-5.51-7.54Z" />
  </symbol>
</svg>
